<svg version="1.2" xmlns="http://www.w3.org/2000/svg" viewBox="0 0 700 700" width="700" height="700">
	<title>noun-confused-58860-svg</title>
	<style>
		.s0 { fill: #b1b2ff } 
		.s1 { fill: #fff6bf } 
	</style>
	<g id="Layer">
		<path id="Layer" class="s0" d="m380.8 171.7c0 5.4-4.3 9.8-9.7 9.8-5.4 0-9.8-4.4-9.8-9.8 0-5.4 4.4-9.8 9.8-9.8 5.4 0 9.7 4.4 9.7 9.8z"/>
		<path id="Layer" class="s0" d="m352.3 73.5c-1.4-4.7-1.8-9.3-1.3-13.8 2.1-19.4 19.6-33.5 39-31.4 9.4 1 17.8 5.7 23.7 13.1 5.8 7.4 8.5 16.6 7.5 26-2.3 21.2-14.1 30.6-25.5 39.8-11.8 9.5-12.6 17-13.1 22l-0.8 7c-0.4 4.1-3.9 7.2-8 7.2q-0.4 0-0.8-0.1c-4.5-0.5-7.6-4.4-7.2-8.8l0.8-7.1c1-9.4 4.1-20.7 19-32.7 11.5-9.3 18.1-15.2 19.6-29 0.5-5.2-0.9-10.3-4.1-14.3-3.2-4-7.7-6.5-12.8-7.1-10.6-1.1-20.2 6.5-21.4 17.1-0.2 2.4 0 4.8 0.8 7.5 1.3 4.2-1.1 8.7-5.4 10-4.2 1.2-8.7-1.2-10-5.4z"/>
		<path id="Layer" class="s0" d="m265.6 172.6c3.9-2.6 9.1-1.5 11.6 2.3 2.6 3.9 1.5 9.1-2.4 11.7-3.8 2.5-9 1.5-11.6-2.4-2.5-3.9-1.5-9.1 2.4-11.6z"/>
		<path id="Layer" class="s0" d="m201.5 127.3c-4.1-6.2-5.6-13.6-4-20.9 1.5-7.3 5.7-13.5 12-17.6 12.8-8.4 30-4.8 38.5 8.1 9 13.6 6.6 25.3 4.5 35.7-2.1 9.8 0.5 13.8 2.4 16.6l2.8 4.3c2.5 3.7 1.5 8.7-2.2 11.1-1.4 0.9-3 1.4-4.5 1.4-2.6 0-5.1-1.3-6.7-3.6l-2.8-4.3c-4.1-6.1-7.8-14.4-4.8-28.8 2.1-10.2 3-15.8-2.1-23.6-3.6-5.4-10.9-7-16.3-3.5-2.6 1.8-4.5 4.4-5.1 7.5-0.6 3.1 0 6.2 1.7 8.8 0.8 1.3 1.8 2.3 3.2 3.2 3.7 2.5 4.7 7.5 2.3 11.2-2.5 3.7-7.5 4.7-11.2 2.2-3.2-2.1-5.7-4.7-7.7-7.8z"/>
		<path id="Layer" class="s1" d="m430.6 178.8c0 4.6-3.8 8.4-8.4 8.4-4.6 0-8.4-3.8-8.4-8.4 0-4.7 3.8-8.4 8.4-8.4 4.6 0 8.4 3.7 8.4 8.4z"/>
		<path id="Layer" class="s1" d="m323.9 161.2c4.6 0.7 7.8 4.9 7.1 9.5-0.7 4.6-5 7.8-9.6 7.1-4.5-0.7-7.7-5-7-9.5 0.7-4.6 4.9-7.8 9.5-7.1z"/>
		<path id="Layer" class="s1" d="m427.9 151.5l2.7-4.4c3.7-6.4 9.4-13.3 23.7-17 10-2.6 15.5-4.4 20.2-12.3 3.3-5.7 1.5-12.9-4-16.2-2.7-1.6-5.9-2.1-9-1.3-3 0.8-5.6 2.7-7.2 5.4-0.7 1.4-1.2 2.7-1.4 4.4-0.6 4.4-4.6 7.5-9 6.9-4.4-0.6-7.5-4.6-6.9-9 0.5-3.8 1.6-7.2 3.5-10.4 3.8-6.4 9.8-11 17-12.8 7.2-1.9 14.7-0.8 21.2 3 13.1 7.7 17.5 24.9 9.7 38.1-8.3 14.1-19.9 17.1-30.1 19.8-9.7 2.5-12.1 6.6-13.9 9.5l-2.6 4.4c-1.5 2.6-4.2 4-6.9 4-1.4 0-2.8-0.3-4.1-1.1-3.8-2.2-5.1-7.2-2.9-11z"/>
		<path id="Layer" class="s1" d="m293.2 68c-0.8-3.8 1.6-7.5 5.4-8.3 3.8-0.8 7.5 1.6 8.3 5.4l15.8 74.6c0.8 3.8-1.6 7.6-5.4 8.4q-0.8 0.1-1.5 0.1c-3.2 0-6.2-2.2-6.9-5.5z"/>
		<path id="Layer" fill-rule="evenodd" class="s0" d="m320.2 489.3c0 24-19.6 43.5-43.6 43.5-24 0-43.6-19.5-43.6-43.5 0-24.1 19.6-43.6 43.6-43.6 24 0 43.6 19.5 43.6 43.6zm-16.4 0c0-15-12.2-27.2-27.2-27.2-15 0-27.2 12.2-27.2 27.2 0 15 12.2 27.2 27.2 27.2 15 0 27.2-12.2 27.2-27.2z"/>
		<path id="Layer" class="s1" d="m286.1 489.3c0 5.2-4.3 9.5-9.5 9.5-5.3 0-9.5-4.3-9.5-9.5 0-5.3 4.2-9.5 9.5-9.5 5.2 0 9.5 4.2 9.5 9.5z"/>
		<path id="Layer" fill-rule="evenodd" class="s0" d="m478.9 489.3c0 24-19.6 43.5-43.6 43.5-24 0-43.6-19.5-43.6-43.5 0-24.1 19.6-43.6 43.6-43.6 24 0 43.6 19.5 43.6 43.6zm-16.4 0c0-15-12.2-27.2-27.2-27.2-15 0-27.2 12.2-27.2 27.2 0 15 12.2 27.2 27.2 27.2 15 0 27.2-12.2 27.2-27.2z"/>
		<path id="Layer" class="s1" d="m444.8 489.3c0 5.2-4.3 9.5-9.5 9.5-5.3 0-9.5-4.3-9.5-9.5 0-5.3 4.3-9.5 9.5-9.5 5.2 0 9.5 4.2 9.5 9.5z"/>
		<path id="Layer" fill-rule="evenodd" class="s0" d="m340.9 260.4l3.1 160.2c0.3 12.2-6.9 12.9-17.1 13.6l0.2 0.2q-1.8 0.1-3.8 0.2l-9.7 0.2c-0.6 0-2.9-0.1-6.4-0.1-6.6-0.8-16.3-4.1-19.2-17-6.9-31.1-1.8-57.6-1.7-57.8 0.5-2.7-1.2-5.2-3.9-5.8-2.6-0.5-5.2 1.2-5.7 3.9-0.2 0.7-2.4 12.2-2.1 28.9 0.1 3-0.6 7.6-8.2 8.9l-24.8 3.9c-2.6 0.4-4.5 2.9-4 5.6 0.3 2.5 2.5 4.2 4.9 4.1q0.3 0 0.7 0l24.5-3.9c5.4-0.9 8.4 1.5 9.1 5.3 0 0 0 0.1 0 0.1q0.6 3.9 1.5 7.9 0 0.3 0.1 0.6 0.1 0.2 0.1 0.4c0 0.1 0 0.2 0 0.2 0.1 0.2 0.1 0.3 0.2 0.5 3.1 12.6-5.6 13.5-11.6 13.6-6.3 0-12 0-16.1 0q-2.7 0.1-5.4 0-4.8-0.6-9.5-1.3c-10.5-2.3-19.8-8.2-21.6-21.4-1.4-9.9 0.3-18 5.2-24.1 5-6.5 13.5-10.6 24.3-11.7 2.7-0.2 4.7-2.6 4.4-5.3-0.3-2.7-2.7-4.6-5.4-4.4-13.5 1.4-24.3 6.7-31 15.3-5.2 6.6-7.8 14.9-7.7 24.3q-0.1 0.6 0 1.5c0.4 8.2-7 13.9-14.5 8.8-6.9-5.5-11.7-12.7-13.2-21.8 0-0.3 0-0.6 0-0.9-1.1-8 2.8-12.8 5-14.9l1.5-1.1c0.1-0.1 0.1-0.2 0.1-0.2v0.1l22-17.7c2.1-1.7 2.4-4.7 0.7-6.8-1.7-2.1-4.7-2.5-6.8-0.8l-8.3 6.6c-0.1 0.1-0.2 0.1-0.4 0.3-5.6 4-12.8-0.6-12.3-8 3.9-29.6 13.4-51.7 26.4-68.1 4.4-5.5 10.1-10.1 14.8-2.4l18.4 28.5c1 1.5 2.6 2.3 4.2 2.2 0.9 0 1.8-0.2 2.6-0.8 2.3-1.4 2.9-4.5 1.5-6.7l-18.1-27.8c-3.3-6.1-3.5-11.4 0.3-15.2 6.7-4.5 13.7-8.2 21.1-11.3 8.4-3.6 12.6 0.1 14.2 7.6q0 0.2 0 0.4 0.2 0.7 0.3 1.4c0 0.3 0.1 0.6 0.2 0.9 1.7 7.1 5.6 12.3 11.5 15.6 5.5 3.1 11.9 3.9 17.8 3.8 9-0.2 16.7-2.6 17.2-2.7 2.6-0.9 4-3.6 3.1-6.2-0.8-2.6-3.6-4-6.1-3.2-4.7 1.6-18.9 4.5-27.3-0.2-3.5-2-5.7-5-6.7-9.4-2.9-11.9 0.9-15.4 9.3-17.9 13.3-2.5 26.7-3.6 39.6-4.1 17.3-0.3 18.2 7.7 18.5 25.4zm-20 141.3c-1.7-14.4-5.9-53.1-6-58.1-0.2-9.3 0.4-35.4 0.4-35.7 0-2.6-2-4.8-4.6-5l-37.7-2.4c-1.5-0.1-3 0.5-4 1.7-1 1.1-1.4 2.7-1.1 4.2 0.1 0.1 3.1 15.2-9.4 24.7-17.7 13.5-38.3-5.9-39.2-6.7-2-1.9-5.1-1.8-6.9 0.1-1.9 1.9-1.9 5 0.1 6.9 9.4 9.1 32.4 22.4 51.9 7.5 11.7-8.8 13.7-21 13.7-28.3l27.3 1.8c-0.2 8-0.4 24.3-0.3 31.4 0.1 6.4 5.4 53.7 6.1 59 0.2 2.6 2.4 4.4 4.9 4.4q0.2 0 0.5-0.1c2.6-0.3 4.6-2.7 4.3-5.4z"/>
		<path id="Layer" fill-rule="evenodd" class="s0" d="m527 392.9c0 0.3 0.1 0.5 0.1 0.8-1.5 9.1-6.2 16.3-13.2 21.9-7.4 5.1-14.8-0.5-14.5-8.8q0.1-0.8 0-1.5c0-9.4-2.6-17.7-7.8-24.2-6.8-8.6-17.6-13.8-31.1-15.1-2.7-0.2-5.1 1.7-5.4 4.4-0.2 2.7 1.7 5.1 4.4 5.3 10.9 1.1 19.3 5 24.4 11.5 4.9 6.1 6.7 14.2 5.3 24.1-1.8 13.2-11 19.2-21.4 21.6q-4.8 0.7-9.6 1.3-2.7 0.1-5.4 0.1c-4-0.1-9.7-0.1-16.1 0h0.1c-6-0.1-14.7-0.9-11.7-13.5 0.1-0.2 0.1-0.3 0.1-0.5q0-0.1 0.1-0.2 0-0.2 0-0.4 0.1-0.3 0.2-0.7 0.8-3.9 1.4-7.8 0-0.1 0.1-0.1c0.6-3.9 3.6-6.3 9-5.4l24.5 3.7q0.4 0.1 0.7 0.1c2.4 0 4.6-1.7 4.9-4.1 0.4-2.7-1.4-5.2-4.1-5.6l-24.7-3.8c-7.7-1.2-8.4-5.8-8.3-8.8h-0.1c0.3-16.8-2-28.2-2.2-29-0.5-2.6-3.1-4.3-5.7-3.8-2.7 0.6-4.4 3.1-3.8 5.8 0 0.3 5.3 26.7-1.5 57.9-2.8 12.9-12.5 16.3-19 17-3.6 0.1-5.9 0.2-6.4 0.2l-9.8-0.2q-2-0.1-3.8-0.2l0.3-0.1c-10.3-0.7-17.4-1.4-17.2-13.6l2.2-160.2c0.2-17.7 1.1-25.7 18.4-25.4 12.8 0.3 26.3 1.4 39.6 3.8 8.4 2.4 12.2 5.9 9.4 17.8-1.1 4.4-3.2 7.5-6.7 9.5-8.4 4.7-22.5 1.9-27.3 0.4-2.5-0.8-5.3 0.6-6.1 3.2-0.8 2.6 0.6 5.3 3.2 6.1 0.5 0.2 8.1 2.6 17.2 2.7 5.8 0.1 12.3-0.8 17.8-3.9 5.9-3.3 9.7-8.6 11.4-15.7q0.1-0.4 0.2-0.9 0.1-0.7 0.2-1.4 0.1-0.2 0.1-0.4c1.5-7.5 5.7-11.3 14.2-7.7 7.3 3.1 14.4 6.8 21.1 11.2 3.8 3.8 3.7 9.1 0.4 15.2l-17.9 27.9c-1.5 2.3-0.8 5.3 1.5 6.7 0.8 0.6 1.6 0.8 2.5 0.8 1.7 0 3.3-0.7 4.2-2.2l18.3-28.6c4.7-7.7 10.4-3.1 14.8 2.2 13.1 16.4 22.7 38.5 26.8 68 0.5 7.4-6.6 12.1-12.3 8.1-0.2-0.2-0.3-0.2-0.4-0.3l-8.3-6.5c-2.1-1.7-5.1-1.4-6.8 0.8-1.7 2.1-1.3 5.1 0.8 6.8l22 17.5q0 0 0.2 0.1l1.4 1.2c2.3 2 6.2 6.8 5.1 14.9zm-36.1-68.5c-1.9-1.9-5-1.9-6.9-0.1-0.9 0.9-21.4 20.4-39.2 7-12.6-9.4-9.6-24.5-9.6-24.7 0.4-1.5-0.1-3-1.1-4.2-1-1.2-2.4-1.7-4-1.7l-37.7 2.7c-2.6 0.2-4.6 2.4-4.5 5 0 0.3 0.7 26.4 0.6 35.7-0.1 5-4.1 43.7-5.7 58.2-0.3 2.7 1.7 5.1 4.3 5.4q0.3 0 0.5 0c2.5 0 4.7-1.9 4.9-4.4 0.6-5.4 5.7-52.7 5.8-59.1 0.1-7.1-0.3-23.3-0.5-31.4l27.3-1.9c0 7.3 2.1 19.5 13.8 28.3 19.6 14.7 42.6 1.3 51.9-7.8 1.9-1.9 2-5 0.1-7z"/>
	</g>
</svg>